<?xml version="1.0" encoding="UTF-8"?>
<!-- ICC · Icono UI: Balon de futbol -->
<svg xmlns="http://www.w3.org/2000/svg" width="48" height="48" viewBox="0 0 48 48"
     role="img" aria-label="Balon">
  <defs>
    <radialGradient id="blFace" cx="38%" cy="34%" r="72%">
      <stop offset="0%" stop-color="#ffffff"/>
      <stop offset="70%" stop-color="#dfe5f2"/>
      <stop offset="100%" stop-color="#9aa6c0"/>
    </radialGradient>
    <clipPath id="blClip"><circle cx="24" cy="24" r="18"/></clipPath>
  </defs>
  <circle cx="24" cy="24" r="18" fill="url(#blFace)" stroke="#1b2a55" stroke-width="1.6"/>
  <g clip-path="url(#blClip)" stroke="#1b2a55" stroke-width="1.6" stroke-linejoin="round" fill="#1b2a55">
    <polygon points="24,18 29,22 27,28 21,28 19,22"/>
    <polygon points="24,6 30,10 29,15 24,18 19,15 18,10"/>
    <polygon points="9,20 14,16 19,22 16,28 10,27"/>
    <polygon points="39,20 38,27 32,28 29,22 34,16"/>
    <polygon points="18,38 21,28 27,28 30,38"/>
  </g>
</svg>
