<?xml version="1.0" encoding="UTF-8"?>
<!-- ICC · Emblema de Rango 4: Capitan -->
<svg xmlns="http://www.w3.org/2000/svg" width="96" height="96" viewBox="0 0 96 96"
     role="img" aria-label="Emblema de rango Capitan">
  <defs>
    <radialGradient id="r4Bg" cx="50%" cy="40%" r="65%">
      <stop offset="0%" stop-color="#21305a"/>
      <stop offset="100%" stop-color="#070b18"/>
    </radialGradient>
    <linearGradient id="r4Ring" x1="0" y1="0" x2="1" y2="1">
      <stop offset="0%" stop-color="#ffe08a"/>
      <stop offset="100%" stop-color="#e0a93a"/>
    </linearGradient>
  </defs>
  <circle cx="48" cy="48" r="44" fill="url(#r4Bg)" stroke="url(#r4Ring)" stroke-width="3.5"/>
  <circle cx="48" cy="48" r="38" fill="none" stroke="#5b8cff" stroke-width="1.5" opacity=".6"/>
  <!-- Corona / laureles -->
  <path d="M28 56 Q24 44 30 34" fill="none" stroke="#ffd35b" stroke-width="2.4" stroke-linecap="round"/>
  <path d="M68 56 Q72 44 66 34" fill="none" stroke="#ffd35b" stroke-width="2.4" stroke-linecap="round"/>
  <!-- Tres estrellas en arco -->
  <g fill="#ffd35b">
    <path d="M48 30 l1.8 3.8 4.2 .4 -3.1 2.8 .9 4.1 -3.8 -2.2 -3.8 2.2 .9 -4.1 -3.1 -2.8 4.2 -.4 z"/>
    <path d="M33 40 l1.3 2.8 3 .3 -2.2 2 .7 3 -2.8 -1.6 -2.8 1.6 .7 -3 -2.2 -2 3 -.3 z"/>
    <path d="M63 40 l1.3 2.8 3 .3 -2.2 2 .7 3 -2.8 -1.6 -2.8 1.6 .7 -3 -2.2 -2 3 -.3 z"/>
  </g>
  <text x="48" y="68" text-anchor="middle" fill="#ffe08a" font-size="9.5" font-weight="800"
        font-family="system-ui, 'Segoe UI', Roboto, Arial, sans-serif" letter-spacing="2">CAPITAN</text>
</svg>
