<?xml version="1.0" encoding="UTF-8"?>
<!-- ICC · Emblema de Rango 2: Operador -->
<svg xmlns="http://www.w3.org/2000/svg" width="96" height="96" viewBox="0 0 96 96"
     role="img" aria-label="Emblema de rango Operador">
  <defs>
    <radialGradient id="r2Bg" cx="50%" cy="40%" r="65%">
      <stop offset="0%" stop-color="#16213f"/>
      <stop offset="100%" stop-color="#070b18"/>
    </radialGradient>
  </defs>
  <circle cx="48" cy="48" r="44" fill="url(#r2Bg)" stroke="#3a63d6" stroke-width="3"/>
  <circle cx="48" cy="48" r="38" fill="none" stroke="#5b8cff" stroke-width="1.5" opacity=".5"/>
  <!-- Dos chevrones = operador -->
  <path d="M30 50 L48 38 L66 50" fill="none" stroke="#5b8cff" stroke-width="5" stroke-linecap="round" stroke-linejoin="round"/>
  <path d="M30 60 L48 48 L66 60" fill="none" stroke="#5b8cff" stroke-width="5" stroke-linecap="round" stroke-linejoin="round"/>
  <!-- Dos estrellas -->
  <path d="M40 70 l1.5 3.2 3.5 .3 -2.6 2.3 .8 3.4 -3.2 -1.8 -3.2 1.8 .8 -3.4 -2.6 -2.3 3.5 -.3 z" fill="#ffd35b"/>
  <path d="M56 70 l1.5 3.2 3.5 .3 -2.6 2.3 .8 3.4 -3.2 -1.8 -3.2 1.8 .8 -3.4 -2.6 -2.3 3.5 -.3 z" fill="#ffd35b"/>
  <text x="48" y="28" text-anchor="middle" fill="#aebfe6" font-size="9" font-weight="700"
        font-family="system-ui, 'Segoe UI', Roboto, Arial, sans-serif" letter-spacing="2">OPERADOR</text>
</svg>
